<svg width="6" height="7" viewBox="0 0 6 7" fill="none" xmlns="http://www.w3.org/2000/svg"><path d="M1.67071 4.84774L5.29889 4.12632C5.41027 4.10402 5.45591 3.96964 5.38108 3.88431L2.94222 1.10301C2.8674 1.01768 2.72811 1.04525 2.69167 1.15278L1.50224 4.65561C1.46579 4.76313 1.55934 4.86982 1.67071 4.84774Z" fill="black"/><path d="M2.63347 0.975104C2.59429 1.00946 2.56467 1.05402 2.54771 1.10405L1.35851 4.60668C1.32369 4.70914 1.34554 4.81909 1.41697 4.90032C1.48829 4.98165 1.59433 5.01778 1.70046 4.99665L5.32865 4.27523C5.38046 4.26495 5.42851 4.24141 5.46769 4.20705C5.59197 4.09807 5.60441 3.90834 5.49544 3.78406L3.05647 1.00264C2.94738 0.87846 2.75775 0.866127 2.63347 0.975104ZM5.26687 3.98449L1.64121 4.69864L2.83291 1.20878L5.26687 3.98449Z" fill="black"/></svg>
