<svg width="6" height="6" viewBox="0 0 6 6" fill="none" xmlns="http://www.w3.org/2000/svg"><path d="M4.14155 1.62211L0.544202 2.48421C0.433775 2.51083 0.393407 2.64688 0.471493 2.72923L3.01677 5.41349C3.09486 5.49585 3.23296 5.46287 3.2652 5.35401L4.31738 1.80753C4.34961 1.69867 4.25197 1.59571 4.14155 1.62211Z" fill="black"/><path d="M3.33031 5.52929C3.36812 5.49344 3.39598 5.44775 3.41098 5.39711L4.46294 1.85084C4.49374 1.7471 4.46763 1.63808 4.39309 1.55969C4.31866 1.4812 4.2113 1.44923 4.10606 1.47448L0.508713 2.33658C0.457342 2.34886 0.410243 2.37426 0.37243 2.41012C0.252488 2.52385 0.247436 2.71392 0.361168 2.83387L2.90655 5.51824C3.02039 5.63808 3.21036 5.64302 3.33031 5.52929ZM0.581761 2.6247L4.17687 1.76995L3.12192 5.30356L0.581761 2.6247Z" fill="black"/></svg>
