<svg xmlns="http://www.w3.org/2000/svg" viewBox="0 0 472.62 462.76"><defs><style>.cls-1{font-size:66.12px;font-family:Consolas;}.cls-1,.cls-2{fill:#314e52;}.cls-3{fill:#fff;}</style></defs><g id="Layer_2" data-name="Layer 2"><g id="Layer_3" data-name="Layer 3"><text class="cls-1" transform="translate(0 442.78)">Abdallah MIRI</text></g><g id="Layer_2-2" data-name="Layer 2"><rect class="cls-2" x="107.56" width="257.5" height="360.51" rx="15.54"/><path class="cls-3" d="M264.07,52.59V253.75a60.13,60.13,0,0,0-54.86-59.9V52.59a6,6,0,0,0,6-6h42.88A6,6,0,0,0,264.07,52.59Z"/><path class="cls-3" d="M322.84,86.91a6,6,0,0,0,6,6V303.64a6,6,0,0,0-6,6H280a6,6,0,0,0-6-6h0V92.9a6,6,0,0,0,0-12V52.59a6,6,0,0,0,6-6h42.88a6,6,0,0,0,6,6V80.92a6,6,0,0,0-6,6Z"/><path class="cls-3" d="M328.83,52.59V80.92a6,6,0,0,0-6,6H280a6,6,0,0,0-6-6h0V52.59a6,6,0,0,0,6-6h42.88A6,6,0,0,0,328.83,52.59Z"/><path class="cls-3" d="M209.21,193.87c-1.75-.17-3.5-.24-5.28-.24-1.11,0-2.21,0-3.31.1v-59.5h-.08a6,6,0,0,1-6-6H161.42a6,6,0,0,1-6,6l-.41,0v84.56a60.14,60.14,0,1,0,100.21,66.38l.13-.19a53.75,53.75,0,0,0,8.7-29.43v-1.75A60.12,60.12,0,0,0,209.21,193.87Zm-5.28,88A28.09,28.09,0,1,1,232,253.77a28.09,28.09,0,0,1-28.08,28.08Z"/></g></g></svg>