<svg xmlns="http://www.w3.org/2000/svg" viewBox="0 0 2021.5 360.51"><defs><style>.cls-1{fill:#314e52;}.cls-2{font-size:238.11px;font-family:Consolas;}.cls-2,.cls-3{fill:#fff;}</style></defs><g id="Layer_2" data-name="Layer 2"><g id="Layer_3" data-name="Layer 3"><rect class="cls-1" x="260.76" y="0.18" width="1760.75" height="360.15" rx="18.76"/><text class="cls-2" transform="translate(290.18 256.79)">Abdallah MIRI</text></g><g id="Layer_2-2" data-name="Layer 2"><rect class="cls-1" width="257.5" height="360.51" rx="15.54"/><path class="cls-3" d="M156.51,52.59V253.75a60.12,60.12,0,0,0-54.85-59.9V52.59a6,6,0,0,0,6-6h42.88A6,6,0,0,0,156.51,52.59Z"/><path class="cls-3" d="M215.28,86.91a6,6,0,0,0,6,6V303.64a6,6,0,0,0-6,6H172.4a6,6,0,0,0-6-6h0V92.9a6,6,0,0,0,0-12V52.59a6,6,0,0,0,6-6h42.88a6,6,0,0,0,6,6V80.92a6,6,0,0,0-6,6Z"/><path class="cls-3" d="M221.27,52.59V80.92a6,6,0,0,0-6,6H172.4a6,6,0,0,0-6-6h0V52.59a6,6,0,0,0,6-6h42.88A6,6,0,0,0,221.27,52.59Z"/><path class="cls-3" d="M101.65,193.87c-1.74-.17-3.5-.24-5.28-.24-1.1,0-2.21,0-3.3.1v-59.5H93a6,6,0,0,1-6-6H53.87a6,6,0,0,1-6,6,2.73,2.73,0,0,1-.41,0v84.56a60.14,60.14,0,1,0,100.21,66.38l.12-.19a53.76,53.76,0,0,0,8.71-29.43v-1.75A60.13,60.13,0,0,0,101.65,193.87Zm-5.28,88a28.09,28.09,0,1,1,28.09-28.08,28.09,28.09,0,0,1-28.09,28.08Z"/></g></g></svg>