<svg xmlns="http://www.w3.org/2000/svg" viewBox="0 0 1717.4 2480.6"><defs><style>.cls-1{fill:#333;}.cls-2{fill:#29abe2;}</style></defs><g id="Layer_2" data-name="Layer 2"><g id="Layer_1-2" data-name="Layer 1"><path class="cls-1" d="M1116.4,55.6V1922.7c0-291.8-223.9-531.3-509.2-556V55.6A55.59,55.59,0,0,0,662.8.1V0h398A55.61,55.61,0,0,0,1116.4,55.6Z"/><path class="cls-1" d="M1661.8,374.2a55.61,55.61,0,0,0,55.6,55.6v1956a55.61,55.61,0,0,0-55.6,55.6h-398a55.52,55.52,0,0,0-55.5-55.6V429.8a55.6,55.6,0,0,0,0-111.2V55.6A55.5,55.5,0,0,0,1263.8.1h398a55.59,55.59,0,0,0,55.6,55.5v263A55.61,55.61,0,0,0,1661.8,374.2Z"/><path class="cls-2" d="M1717.4,55.6v263a55.61,55.61,0,0,0-55.6,55.6h-398a55.52,55.52,0,0,0-55.5-55.6V55.6A55.5,55.5,0,0,0,1263.8.1V0h398V.1A55.59,55.59,0,0,0,1717.4,55.6Z"/><path class="cls-2" d="M607.3,1366.4c-16.2-1.6-32.5-2.2-49-2.2-10.3,0-20.5.3-30.7.9V812.8h-.8a55.61,55.61,0,0,1-55.6-55.6H163.7a55.61,55.61,0,0,1-55.6,55.6,23.58,23.58,0,0,1-3.8-.2v784.8A555.87,555.87,0,0,0,0,1922.4c0,308.2,249.8,558.2,558.2,558.2,201.5,0,378.1-106.8,476.2-267,.3-.6.8-1.2,1.1-1.8a499.49,499.49,0,0,0,80.8-273.2v-16.2C1116.4,1630.5,892.5,1391.1,607.3,1366.4Zm-49,816.6c-144,0-260.8-116.7-260.8-260.7s116.8-260.7,260.8-260.7S819,1778.3,819,1922.3,702.2,2183,558.3,2183Z"/></g></g></svg>