<svg width="6" height="6" viewBox="0 0 6 6" fill="none" xmlns="http://www.w3.org/2000/svg"><path d="M3.75383 3.06349L5.91431 0.903016C5.99101 0.826294 5.99101 0.70214 5.91431 0.625443L5.50141 0.212366C5.46464 0.175615 5.41473 0.154922 5.36265 0.154922C5.31055 0.154922 5.26064 0.175615 5.22387 0.212366L3.06339 2.37301L0.902917 0.212366C0.866143 0.175615 0.816239 0.154922 0.764139 0.154922C0.712052 0.154922 0.662136 0.175615 0.625374 0.212366L0.212476 0.625443C0.135758 0.70214 0.135758 0.826294 0.212476 0.903016L2.37295 3.06351L0.21269 5.22373C0.136011 5.30045 0.136011 5.42461 0.21269 5.5013L0.625614 5.91438C0.662363 5.95113 0.712279 5.97182 0.764379 5.97182C0.816479 5.97182 0.866383 5.95113 0.903169 5.91438L3.06338 3.75399L5.2236 5.91438C5.26038 5.95113 5.31028 5.97182 5.36238 5.97182C5.41449 5.97182 5.4644 5.95113 5.50115 5.91438L5.91407 5.5013C5.99075 5.42461 5.99075 5.30045 5.91407 5.22373L3.75383 3.06349Z" fill="black"/></svg>
