<svg width="10" height="10" viewBox="0 0 10 10" fill="none" xmlns="http://www.w3.org/2000/svg">
<path d="M1.67071 7.84774L5.29889 7.12632C5.41027 7.10402 5.45591 6.96964 5.38108 6.88431L2.94222 4.10301C2.8674 4.01768 2.72811 4.04525 2.69167 4.15278L1.50224 7.65561C1.46579 7.76313 1.55934 7.86982 1.67071 7.84774Z" fill="black"/>
<path d="M2.63347 3.9751C2.59429 4.00946 2.56467 4.05402 2.54771 4.10405L1.35851 7.60668C1.32369 7.70914 1.34554 7.81909 1.41697 7.90032C1.48829 7.98165 1.59433 8.01778 1.70046 7.99665L5.32865 7.27523C5.38046 7.26495 5.42851 7.24141 5.46769 7.20705C5.59197 7.09807 5.60441 6.90834 5.49544 6.78406L3.05647 4.00264C2.94738 3.87846 2.75775 3.86613 2.63347 3.9751ZM5.26687 6.98449L1.64121 7.69864L2.83291 4.20878L5.26687 6.98449Z" fill="black"/>
<path d="M8.14155 1.62211L4.5442 2.48421C4.43378 2.51083 4.39341 2.64688 4.47149 2.72923L7.01677 5.41349C7.09486 5.49585 7.23296 5.46287 7.2652 5.35401L8.31738 1.80753C8.34961 1.69867 8.25197 1.59571 8.14155 1.62211Z" fill="black"/>
<path d="M7.33031 5.52929C7.36812 5.49344 7.39598 5.44775 7.41098 5.39711L8.46294 1.85084C8.49374 1.7471 8.46763 1.63808 8.39309 1.55969C8.31866 1.4812 8.2113 1.44923 8.10606 1.47448L4.50871 2.33658C4.45734 2.34886 4.41024 2.37426 4.37243 2.41012C4.25249 2.52385 4.24744 2.71392 4.36117 2.83387L6.90655 5.51824C7.02039 5.63808 7.21036 5.64302 7.33031 5.52929ZM4.58176 2.6247L8.17687 1.76995L7.12192 5.30356L4.58176 2.6247Z" fill="black"/>
</svg>
