<svg xmlns="http://www.w3.org/2000/svg" viewBox="0 0 1656.01 583.06"><defs><style>.cls-1{fill:#1d1d1e;}.cls-2{fill:#0d6efd;stroke:#7f67ff;stroke-miterlimit:10;}.cls-3{fill:#fff;}</style></defs><g id="Layer_2" data-name="Layer 2"><g id="Layer_1-2" data-name="Layer 1"><g id="Layer_2-2" data-name="Layer 2"><g id="Layer_2-2-2" data-name="Layer 2-2"><rect class="cls-1" x="1083.29" y="104.04" width="78.75" height="78.75"/><rect class="cls-1" x="1079.71" y="213.9" width="85.92" height="271.26"/><rect class="cls-1" x="1573.67" y="104.04" width="78.75" height="78.75"/><rect class="cls-1" x="1570.09" y="213.9" width="85.92" height="246.2"/><path class="cls-1" d="M1504.37,321.19a13.55,13.55,0,0,0-10.86-13.28,13.53,13.53,0,0,0,10.87-13.25v-3.78h0l0-72.79h0V177.26h0V164.64a27.7,27.7,0,0,0-27.68-27.7H1409l-81.14,0V96.34L1242,96.28v40.58h-34.61l0,81.14H1242l-.12,270.84,85.92,0,.1-270.87,81.14,0v72.27h-45.18v17.84h0v17.29l54.84,0L1418.59,460l85.92,0,0-136h-.16Z"/><path class="cls-1" d="M1041.58,169.3a41.66,41.66,0,0,0-39.5-41.62,48.75,48.75,0,0,0-8.18-.7l-250.67-.1V94.22l-85.9,0v32.66H624.06L624,208h33.26l-.1,275.21,85.91,0L743.2,208l60.88,0L804,434.3l85.91,0,.1-226.27h56.1L946,476l95.46,0,.11-267.93h.1V174.76c0-1,0-2-.1-3.06Z"/></g></g><g id="Layer_2-3" data-name="Layer 2"><g id="Layer_2-2-3" data-name="Layer 2-2"><rect class="cls-2" x="0.5" y="0.5" width="582.06" height="582.06" rx="36.85"/><path class="cls-3" d="M513.13,164.78A44.22,44.22,0,0,0,471.2,120.6a50.65,50.65,0,0,0-8.69-.75l-266.11-.11V85.07H105.21v34.68H69.89v86.12H105.2L105.05,498h91.2l.12-292.16H261L260.9,446h91.21l.1-240.21h59.56l-.12,284.44,101.34.05L513.11,206h.11V170.6a31.5,31.5,0,0,0-.11-3.24Z"/></g></g></g></g></svg>