<svg xmlns="http://www.w3.org/2000/svg" viewBox="0 0 372.63 128.37"><defs><style>.cls-1{fill:#1d1d1e;}.cls-2{fill:#0d6efd;stroke:#7f67ff;stroke-miterlimit:10;stroke-width:0.22px;}.cls-3{fill:#fff;}</style></defs><g id="Layer_2" data-name="Layer 2"><g id="Layer_1-2" data-name="Layer 1"><g id="Layer_2-2" data-name="Layer 2"><g id="Layer_3" data-name="Layer 3"><g id="Layer_2-2-2" data-name="Layer 2-2"><g id="Layer_2-2-2-2" data-name="Layer 2-2-2"><rect class="cls-1" x="246.54" y="22.91" width="17.34" height="17.34"/><rect class="cls-1" x="245.75" y="47.09" width="18.92" height="59.72"/><rect class="cls-1" x="354.5" y="22.91" width="17.34" height="17.34"/><rect class="cls-1" x="353.71" y="47.09" width="18.92" height="54.2"/><path class="cls-1" d="M339.25,70.72a3,3,0,0,0-2.4-2.93,3,3,0,0,0,2.4-2.92V64h0V48h0V39h0V36.25a6.09,6.09,0,0,0-6.09-6.1H300.39V21.21H281.48v8.93h-7.62V48h7.62l0,59.63h18.92l0-59.64h17.87V63.9h-10v3.93h0v3.81h12.08l0,29.64h18.91l0-29.95h0Z"/><path class="cls-1" d="M237.35,37.27a9.17,9.17,0,0,0-8.69-9.16,10.93,10.93,0,0,0-1.8-.15l-55.19,0V20.74H152.76v7.19h-7.33V45.8h7.32l0,60.59h18.92l0-60.59h13.4l0,49.81H204l0-49.81h12.35l0,59h21l0-59h0V38.48c0-.22,0-.44,0-.68Z"/></g></g></g><g id="Layer_2-3" data-name="Layer 2-3"><rect class="cls-2" x="0.11" y="0.11" width="128.15" height="128.15" rx="8.11"/><path class="cls-3" d="M106.53,18.55H55V8.81H29.19v9.74H16.68V41.22H29.19v71H55v-71H89.64V63.5H68.3V79.94H89.64v39.63h22V23.72a5.15,5.15,0,0,0-5.15-5.17Z"/></g></g></g></g></svg>