<svg xmlns="http://www.w3.org/2000/svg" viewBox="0 0 1692.49 583.06"><defs><style>.cls-1{fill:#1d1d1e;}.cls-2{fill:#0d6efd;stroke:#7f67ff;stroke-miterlimit:10;}.cls-3{fill:#fff;}</style></defs><g id="Layer_2" data-name="Layer 2"><g id="Layer_3" data-name="Layer 3"><g id="Layer_2-2" data-name="Layer 2"><g id="Layer_2-2-2" data-name="Layer 2-2"><rect class="cls-1" x="1119.77" y="104.04" width="78.75" height="78.75"/><rect class="cls-1" x="1116.19" y="213.9" width="85.92" height="271.26"/><rect class="cls-1" x="1610.15" y="104.04" width="78.75" height="78.75"/><rect class="cls-1" x="1606.57" y="213.9" width="85.92" height="246.2"/><path class="cls-1" d="M1540.85,321.19A13.55,13.55,0,0,0,1530,307.91a13.53,13.53,0,0,0,10.87-13.25v-3.78h.05l0-72.79h0V177.26h0V164.64a27.69,27.69,0,0,0-27.67-27.7H1445.5l-81.14,0V96.34l-85.89-.06v40.58h-34.6l0,81.14h34.6l-.12,270.84,85.91,0,.11-270.87,81.14,0v72.27h-45.19v17.84h0v17.29l54.85,0L1455.07,460l85.92,0,0-136h-.16Z"/><path class="cls-1" d="M1078.06,169.3a41.66,41.66,0,0,0-39.5-41.62,48.75,48.75,0,0,0-8.18-.7l-250.67-.1V94.22l-85.9,0v32.66H660.54l0,81.13h33.26l-.1,275.21,85.91,0,.11-275.2,60.88,0-.1,226.26,85.92,0,.1-226.27h56.1L982.47,476l95.46,0,.11-267.93h.1V174.76c0-1,0-2-.1-3.06Z"/></g></g></g><g id="Layer_2-3" data-name="Layer 2"><rect class="cls-2" x="0.5" y="0.5" width="582.06" height="582.06" rx="36.85"/><path class="cls-3" d="M449.44,121.38H257.28V85H161v36.38H114.37v84.51H161V470.77h96.26V205.89H386.46V289H306.88v61.29h79.58V498.06h82.23V140.63A19.25,19.25,0,0,0,449.44,121.38Z"/></g></g></svg>