<svg xmlns="http://www.w3.org/2000/svg" viewBox="0 0 1692.5 583.06"><defs><style>.cls-1{fill:#1d1d1e;}.cls-2{fill:#0d6efd;stroke:#7f67ff;stroke-miterlimit:10;}.cls-3{fill:#fff;}</style></defs><g id="Layer_2" data-name="Layer 2"><g id="Layer_3" data-name="Layer 3"><g id="Layer_2-2" data-name="Layer 2"><g id="Layer_2-2-2" data-name="Layer 2-2"><rect class="cls-1" x="1119.77" y="104.04" width="78.75" height="78.75"/><rect class="cls-1" x="1116.19" y="213.9" width="85.92" height="271.26"/><rect class="cls-1" x="1610.16" y="104.04" width="78.75" height="78.75"/><rect class="cls-1" x="1606.58" y="213.9" width="85.92" height="246.2"/><path class="cls-1" d="M1540.86,321.19A13.54,13.54,0,0,0,1530,307.91a13.52,13.52,0,0,0,10.88-13.25v-3.78h.05l0-72.79h0V177.26h0V164.64a27.69,27.69,0,0,0-27.67-27.7H1445.5l-81.14,0V96.34l-85.88-.06v40.58h-34.6l0,81.14h34.61l-.13,270.84,85.92,0,.11-270.87,81.14,0v72.27H1400.3v17.84h0v17.29l54.85,0L1455.08,460l85.91,0,.06-136h-.17Z"/><path class="cls-1" d="M1078.07,169.3a41.67,41.67,0,0,0-39.5-41.62,48.75,48.75,0,0,0-8.18-.7l-250.67-.1V94.22l-85.9,0v32.66H660.55l0,81.13h33.26l-.1,275.21,85.91,0,.11-275.2,60.88,0-.1,226.26,85.92,0,.09-226.27h56.11L982.48,476l95.46,0,.11-267.93h.1V174.76c0-1,0-2-.1-3.06Z"/></g></g></g><g id="Layer_2-3" data-name="Layer 2"><rect class="cls-2" x="0.5" y="0.5" width="582.06" height="582.06" rx="36.85"/><path class="cls-3" d="M483.88,84.27H249.81V40H132.56V84.27H75.74V187.21h56.82V509.86H249.81V187.21H407.16V288.43H310.22v74.65h96.94v180H507.32V107.72A23.44,23.44,0,0,0,483.88,84.27Z"/></g></g></svg>