<svg xmlns="http://www.w3.org/2000/svg" viewBox="0 0 583.06 583.06"><defs><style>.cls-1{fill:#0d6efd;stroke:#7f67ff;stroke-miterlimit:10;}.cls-2{fill:#fff;}</style></defs><g id="Layer_2" data-name="Layer 2"><g id="Layer_2-2" data-name="Layer 2"><rect class="cls-1" x="0.5" y="0.5" width="582.06" height="582.06" rx="36.85"/><path class="cls-2" d="M513.13,164.78A44.23,44.23,0,0,0,471.2,120.6a50.65,50.65,0,0,0-8.69-.75l-266.11-.11V85.07l-91.19,0v34.68H69.89l0,86.12h35.31L105.05,498l91.2,0,.12-292.16,64.63,0-.1,240.2,91.21,0,.1-240.21h59.56l-.12,284.44,101.34.05L513.11,206h.11v-35.4c0-1.11,0-2.17-.11-3.24Z"/></g></g></svg>