<svg xmlns="http://www.w3.org/2000/svg" viewBox="0 0 3000 3000"><defs><style>.cls-1{fill:#fff;}.cls-2{fill:#333;}.cls-3{fill:#29abe2;}</style></defs><g id="Layer_2" data-name="Layer 2"><g id="Layer_1-2" data-name="Layer 1"><rect class="cls-1" width="3000" height="3000"/><path class="cls-2" d="M1677.78,349V2216.14c0-291.83-223.94-531.29-509.18-556V349a55.59,55.59,0,0,0,55.6-55.49v-.11h398A55.6,55.6,0,0,0,1677.78,349Z"/><path class="cls-2" d="M2223.24,667.61a55.61,55.61,0,0,0,55.6,55.6v1956a55.6,55.6,0,0,0-55.6,55.59h-398a55.51,55.51,0,0,0-55.49-55.59v-1956a55.6,55.6,0,0,0,0-111.19V349a55.49,55.49,0,0,0,55.49-55.49h398a55.59,55.59,0,0,0,55.6,55.49V612A55.6,55.6,0,0,0,2223.24,667.61Z"/><path class="cls-3" d="M2278.84,349V612a55.6,55.6,0,0,0-55.6,55.59h-398A55.51,55.51,0,0,0,1769.77,612V349a55.49,55.49,0,0,0,55.49-55.49v-.11h398v.11A55.59,55.59,0,0,0,2278.84,349Z"/><path class="cls-3" d="M1168.55,1660.38c-16.19-1.56-32.49-2.23-49-2.23-10.27,0-20.54.34-30.7.89V1106.77h-.78a55.6,55.6,0,0,1-55.6-55.59H725a55.59,55.59,0,0,1-55.59,55.59,21.4,21.4,0,0,1-3.8-.22v784.81a555.75,555.75,0,0,0-104.27,325c0,308.23,249.85,558.19,558.19,558.19,201.5,0,378.12-106.84,476.24-267,.34-.56.79-1.23,1.12-1.79a499.11,499.11,0,0,0,80.83-273.17v-16.19C1677.73,1924.52,1453.78,1685.06,1168.55,1660.38Zm-49,816.63c-144,0-260.79-116.66-260.79-260.67s116.78-260.67,260.79-260.67,260.67,116.66,260.67,260.67S1263.44,2477,1119.54,2477Z"/></g></g></svg>