<svg xmlns="http://www.w3.org/2000/svg" viewBox="0 0 1966.48 752.09"><defs><style>.cls-1{fill:#1d1d1e;}</style></defs><g id="Layer_2" data-name="Layer 2"><g id="Layer_2-2" data-name="Layer 2"><rect class="cls-1" x="875.1" y="18.78" width="150.06" height="150.06"/><rect class="cls-1" x="868.28" y="228.11" width="163.71" height="516.87"/><rect class="cls-1" x="1809.5" y="18.78" width="150.06" height="150.06"/><rect class="cls-1" x="1802.68" y="228.11" width="163.71" height="469.12"/><path class="cls-1" d="M1677.45,432.55a25.8,25.8,0,0,0-20.7-25.3A25.79,25.79,0,0,0,1677.47,382V374.8h.1l.06-138.7h0l0-77.8h0V134.25a52.76,52.76,0,0,0-52.73-52.78l-129.14,0h0l-154.61-.06,0-77.31L1177.51,4l0,77.31-65.94,0-.06,154.61,65.94,0L1177.21,752l163.71.06.2-516.12,154.61.06,0,137.7-86.1,0v34h0l0,32.95,104.51.05L1514,697.09l163.71.07.1-259.09h-.31Z"/><path class="cls-1" d="M795.63,143.13a79.37,79.37,0,0,0-75.26-79.3,92,92,0,0,0-15.59-1.34L227.15,62.3l0-62.24L63.47,0l0,62.23-63.39,0L0,216.82l63.38,0-.2,524.38,163.7.07.21-524.38,116,.05-.18,431.13,163.71.07L506.8,217l106.9,0-.2,510.53,181.89.08.21-510.54h.19l0-63.54c0-2-.07-3.9-.19-5.82Z"/></g></g></svg>